<?xml version="1.0" encoding="utf-8"?>
<!-- Generator: Adobe Illustrator 15.0.2, SVG Export Plug-In . SVG Version: 6.00 Build 0)  -->
<!DOCTYPE svg PUBLIC "-//W3C//DTD SVG 1.1//EN" "http://www.w3.org/Graphics/SVG/1.1/DTD/svg11.dtd">
<svg version="1.1" id="Ebene_1" xmlns="http://www.w3.org/2000/svg" xmlns:xlink="http://www.w3.org/1999/xlink" x="0px" y="0px"
	 width="248px" height="77px" viewBox="0 0 248 77" enable-background="new 0 0 248 77" xml:space="preserve">
<g>
	<g>
		<path fill="#009EE0" d="M62.658,21.278c-2.487-1.415-5.973-2.16-10.078-2.16c-9.925,0-16.339,5.184-16.339,13.202
			c0,8.474,6.149,13.333,16.872,13.333c3.78,0,9.56-0.676,13.316-2.158L66.92,43.3V30.921H51.523v5.23h8.222v3.176
			c-2.337,0.644-4.138,0.896-6.274,0.896c-8.436,0-9.695-4.975-9.695-7.938c0-1.859,0.696-7.937,9.657-7.937
			c1.988,0,5.792,0.807,5.96,3.87l0.041,0.73h7.485v-0.773C66.92,25.251,65.446,22.864,62.658,21.278"/>
	</g>
</g>
<g>
	<g>
		<polygon fill="#009EE0" points="78.736,19.743 71.42,19.743 71.42,45.025 92.877,45.025 92.877,39.602 78.736,39.602 		"/>
	</g>
</g>
<g>
	<g>
		<path fill="#009EE0" d="M108.371,40.223c-5.306,0-8.229-2.782-8.229-7.834c0-5.058,2.924-7.843,8.229-7.843
			c5.311,0,8.234,2.785,8.234,7.843C116.606,37.44,113.682,40.223,108.371,40.223 M108.371,19.12
			c-10.165,0-15.762,4.713-15.762,13.269s5.597,13.267,15.762,13.267c10.168,0,15.772-4.711,15.772-13.267
			S118.54,19.12,108.371,19.12"/>
	</g>
</g>
<g>
	<g>
		<path fill="#009EE0" d="M134.096,34.639h7.586c1.825,0,4.889,0.339,4.889,2.61c0,1.69-1.773,2.547-5.271,2.547h-7.201v-5.157
			H134.096z M141.541,29.405h-7.447v-4.433h6.346c4.244,0,4.816,1.171,4.816,2.315C145.255,28.335,144.816,29.405,141.541,29.405
			 M149.168,31.654c2.172-0.919,3.832-2.655,3.832-5.09c0-2.56-1.109-4.427-3.298-5.551c-1.671-0.854-3.968-1.271-7.022-1.271
			h-15.904v25.281h16.477c3.889,0,6.832-0.803,8.753-2.395c2.019-1.662,2.313-3.696,2.313-4.758
			C154.316,34.796,152.514,32.652,149.168,31.654"/>
	</g>
</g>
<g>
	<g>
		<path fill="#009EE0" d="M175.471,34.274h-8.141l4.066-7.865L175.471,34.274z M167.736,19.743l-13.959,25.282h7.981l2.703-5.323
			h13.884l2.959,5.323h8.604l-13.992-25.282H167.736z"/>
	</g>
</g>
<g>
	<g>
		<polygon fill="#009EE0" points="199.057,39.602 199.057,19.743 191.736,19.743 191.736,45.025 213.195,45.025 213.195,39.602 		
			"/>
	</g>
</g>
<g>
	<g>
		<polygon fill="#9D9D9D" points="135.13,50.87 139.561,50.87 139.561,56.359 144.898,56.359 144.898,50.87 149.373,50.87 
			149.373,64.93 144.898,64.93 144.898,59.245 139.54,59.245 139.54,64.93 135.13,64.93 		"/>
	</g>
</g>
<g>
	<g>
		<polygon fill="#9D9D9D" points="157.951,68.628 154.094,68.628 155.656,65.241 151.025,55.154 155.503,55.154 157.708,61.948 
			160.111,55.154 163.971,55.154 		"/>
	</g>
</g>
<g>
	<g>
		<path fill="#9D9D9D" d="M170.805,63.001c0.368,0,0.688-0.078,0.959-0.231c0.271-0.153,0.488-0.369,0.649-0.646
			c0.163-0.271,0.282-0.588,0.364-0.951c0.08-0.362,0.121-0.754,0.121-1.172c0-0.397-0.041-0.776-0.121-1.138
			c-0.082-0.354-0.201-0.668-0.364-0.938c-0.161-0.266-0.372-0.475-0.63-0.62c-0.256-0.148-0.568-0.228-0.938-0.228
			c-0.471,0-0.841,0.11-1.111,0.342c-0.271,0.229-0.479,0.496-0.627,0.81c-0.146,0.312-0.244,0.64-0.287,0.976
			c-0.045,0.336-0.067,0.623-0.067,0.854c0,0.233,0.022,0.521,0.067,0.854c0.043,0.338,0.136,0.66,0.271,0.965
			c0.143,0.308,0.348,0.565,0.62,0.787C169.984,62.893,170.35,63.001,170.805,63.001 M177.001,50.87v11.625
			c0,0.414,0.013,0.821,0.034,1.219c0.021,0.396,0.047,0.802,0.076,1.218h-3.924l-0.088-1.438c-0.117,0.143-0.265,0.312-0.434,0.496
			c-0.169,0.188-0.396,0.368-0.686,0.545c-0.283,0.176-0.642,0.323-1.066,0.446s-0.946,0.187-1.562,0.187
			c-0.957,0-1.746-0.151-2.371-0.468c-0.625-0.312-1.125-0.711-1.5-1.196c-0.375-0.483-0.641-1.032-0.793-1.646
			c-0.154-0.607-0.23-1.213-0.23-1.814c0-0.518,0.035-0.973,0.109-1.357c0.072-0.393,0.174-0.731,0.299-1.033
			c0.125-0.299,0.271-0.557,0.439-0.775c0.168-0.223,0.348-0.423,0.537-0.604c0.518-0.479,1.075-0.82,1.68-1.021
			c0.604-0.201,1.256-0.303,1.963-0.303c0.455,0,0.854,0.039,1.201,0.115c0.344,0.078,0.646,0.183,0.9,0.312
			c0.26,0.131,0.489,0.272,0.691,0.438c0.207,0.162,0.396,0.328,0.574,0.496v-5.44H177.001L177.001,50.87z"/>
	</g>
</g>
<g>
	<g>
		<path fill="#9D9D9D" d="M179.889,57.238l-0.111-2.084h4.035l0.067,2.022c0.233-0.545,0.522-0.965,0.869-1.256
			s0.708-0.5,1.081-0.623c0.375-0.123,0.734-0.188,1.08-0.202c0.346-0.015,0.636-0.021,0.871-0.021v3.137
			c-0.295-0.041-0.59-0.062-0.883-0.062c-0.631,0-1.141,0.091-1.521,0.266c-0.382,0.178-0.671,0.396-0.872,0.661
			c-0.196,0.271-0.331,0.554-0.396,0.858s-0.101,0.586-0.101,0.844v4.148h-4.122L179.889,57.238L179.889,57.238z"/>
	</g>
</g>
<g>
	<g>
		<path fill="#9D9D9D" d="M192.898,60.021c0,0.326,0.026,0.703,0.088,1.131c0.06,0.43,0.207,0.822,0.438,1.188
			c0.118,0.184,0.25,0.324,0.397,0.43c0.146,0.104,0.289,0.183,0.438,0.23c0.146,0.057,0.289,0.086,0.43,0.102
			c0.142,0.013,0.254,0.02,0.344,0.02c0.453,0,0.82-0.098,1.103-0.291c0.278-0.193,0.496-0.438,0.65-0.738
			c0.153-0.299,0.26-0.635,0.317-1.004c0.061-0.369,0.088-0.725,0.088-1.062c0-0.426-0.032-0.826-0.1-1.205
			c-0.064-0.377-0.181-0.702-0.344-0.982c-0.16-0.275-0.377-0.504-0.648-0.67c-0.271-0.17-0.613-0.252-1.022-0.252
			c-0.457,0-0.827,0.094-1.113,0.279c-0.284,0.188-0.506,0.434-0.659,0.729c-0.152,0.3-0.263,0.636-0.32,1.005
			C192.93,59.292,192.898,59.659,192.898,60.021 M188.598,60.003c0-0.754,0.133-1.442,0.397-2.073c0.265-0.63,0.665-1.175,1.2-1.638
			c0.537-0.459,1.209-0.819,2.02-1.08c0.807-0.26,1.762-0.39,2.865-0.39c0.896,0,1.732,0.101,2.513,0.302
			c0.779,0.201,1.455,0.51,2.028,0.926c0.572,0.416,1.025,0.94,1.355,1.576c0.332,0.64,0.494,1.392,0.494,2.26
			c0,0.716-0.125,1.41-0.375,2.093c-0.25,0.685-0.658,1.276-1.232,1.782c-0.469,0.4-1.063,0.734-1.776,1.005
			c-0.713,0.267-1.642,0.396-2.787,0.396c-1.235,0-2.262-0.127-3.077-0.381c-0.814-0.254-1.496-0.604-2.039-1.062
			c-0.324-0.271-0.588-0.562-0.793-0.863c-0.207-0.307-0.367-0.621-0.482-0.943c-0.117-0.324-0.198-0.646-0.244-0.977
			C188.62,60.611,188.598,60.302,188.598,60.003"/>
	</g>
</g>
<g>
	<g>
		<path fill="#009EE0" d="M103.5,76.577c0-0.188-0.449-0.234-0.449-0.234l-0.003-0.002c-51.041-4.231-87.974-19.596-88.925-39.625
			c-0.347-7.322,4.154-14.479,12.461-21.058c0.324-0.254,0.017-0.759-0.36-0.587C9.369,22.839-0.431,32.009,0.015,41.436
			C0.931,60.786,44.746,74.982,103.06,76.729C103.242,76.725,103.5,76.699,103.5,76.577"/>
	</g>
</g>
<g>
	<g>
		<path fill="#9D9D9D" d="M163.745,0.275c-0.235-0.012-0.675-0.008-0.714,0.196c-0.053,0.275,0.242,0.425,0.896,0.514
			c0.013,0.001,0.013,0.008,0.021,0.01c42.871,5.62,72.588,19.447,73.414,36.965c0.361,7.574-4.729,14.978-14.021,21.72
			c-0.229,0.161-0.021,0.51,0.229,0.391c15.752-7.584,24.845-16.432,24.414-25.514C247.17,17.343,212.438,4.204,163.745,0.275"/>
	</g>
</g>
</svg>
